<svg xmlns="http://www.w3.org/2000/svg" viewBox="0 0 1400 700" role="img" aria-label="Контурная карта России">
  <path
    d="M58 360 L96 332 L132 320 L176 306 L228 302 L266 278 L304 286 L338 266 L386 262 L430 244 L484 238 L538 220 L586 214 L632 194 L682 190 L734 166 L786 170 L842 190 L894 214 L954 228 L1002 258 L1044 254 L1094 272 L1142 268 L1184 286 L1226 302 L1268 322 L1312 334 L1342 360 L1328 384 L1296 394 L1260 402 L1236 424 L1184 436 L1134 428 L1086 438 L1048 426 L1006 436 L958 426 L914 434 L872 430 L828 440 L782 438 L736 450 L690 446 L642 458 L590 454 L538 466 L492 464 L444 476 L396 480 L354 498 L308 496 L264 514 L220 508 L186 486 L156 462 L124 450 L96 426 L72 402 Z"
    fill="rgba(255,255,255,0.82)"
    stroke="rgba(26,58,82,0.35)"
    stroke-width="6"
    stroke-linejoin="round"
  />
</svg>
